# xmcd CD database file
#
# Track frame offsets:
#	150
#	18411
#	32632
#	47736
#	63178
#	83492
#	98598
#	117726
#	133988
#	147885
#	161205
#	175985
#	192877
#	207953
#	223706
#	240508
#	252522
#
# Disc length: 3593 seconds
#
# Revision: 1
# Processed by: cddbd v1.4PL0 Copyright (c) Steve Scherf et al.
# Submitted via: jetAudio 5
#
DISCID=f40e0711
DTITLE=Aaron Tippon - People Like Us - Stars and Stripes
DYEAR=1900
DGENRE=
TTITLE0=Always Was
TTITLE1=And I Love You
TTITLE2=At The End Of The Day
TTITLE3=Every Now And Then (I Wish Then Was Now)
TTITLE4=Five Gallon Tear
TTITLE5=Honky Tonk, If You Love Country
TTITLE6=I Believed
TTITLE7=I'll Take Love Over Money
TTITLE8=If Her Lovin' Don't Kill Me
TTITLE9=Kiss This
TTITLE10=Lost
TTITLE11=Love Like There's No Tomorrow
TTITLE12=People Like Us
TTITLE13=This Old Couch
TTITLE14=Twenty-Nine And Holding
TTITLE15=We Can't Get Any Higher Than This
TTITLE16=Where The Stars And Stripes And the Eagle Fly
EXTD=
EXTT0=
EXTT1=
EXTT2=
EXTT3=
EXTT4=
EXTT5=
EXTT6=
EXTT7=
EXTT8=
EXTT9=
EXTT10=
EXTT11=
EXTT12=
EXTT13=
EXTT14=
EXTT15=
EXTT16=
PLAYORDER=
